# xmcd
#
# Track frame offsets: 
#        150
#        18956
#        34616
#        48728
#        68140
#        85953
#        99068
#        114201
#        148034
#        164471
#        181252
#        201669
#        216997
#
# Disc length: 2998 seconds
#
# Revision: 0
# Processed by: cddbd v1.5.2PL0 Copyright (c) Steve Scherf et al.
# Submitted via: ExactAudioCopyFreeDBPlugin 1.0
#
DISCID=b30bb40d
DTITLE=Dinko Stipaničev - Swingin' on a blue way
DYEAR=1900
DGENRE=Ethnic
TTITLE0=Swingin' on a blue way
TTITLE1=Moja mala nema mane
TTITLE2=Friends forewer
TTITLE3=Sweet talking
TTITLE4=Sweet Georgia Brown
TTITLE5=Little blue dee
TTITLE6=La gitane
TTITLE7=Almost gone
TTITLE8=Valse à Dinko
TTITLE9=There will never be another you
TTITLE10=Kordun winter
TTITLE11=Dinette
TTITLE12=The way you look tonight
EXTD=
EXTT0=
EXTT1=
EXTT2=
EXTT3=
EXTT4=
EXTT5=
EXTT6=
EXTT7=
EXTT8=
EXTT9=
EXTT10=
EXTT11=
EXTT12=
PLAYORDER=
